<?xml version="1.0" encoding="utf-8"?>
<!-- Generator: Adobe Illustrator 16.0.0, SVG Export Plug-In . SVG Version: 6.00 Build 0)  -->
<!DOCTYPE svg PUBLIC "-//W3C//DTD SVG 1.1//EN" "http://www.w3.org/Graphics/SVG/1.1/DTD/svg11.dtd">
<svg version="1.1" id="Layer_1" xmlns="http://www.w3.org/2000/svg" xmlns:xlink="http://www.w3.org/1999/xlink" x="0px" y="0px"
	 width="500px" height="500px" viewBox="0 0 500 500" enable-background="new 0 0 500 500" xml:space="preserve">
<path fill="#FFFFFF" d="M248.959,494.108c0,0,0-16.992-17.262-36.411c-17.261-19.419-109.773-103.3-125.956-116.246
	c-16.183-12.946-9.709-12.946-40.997-18.341c0,0-6.203,13.216-14.834,16.452c-8.631,3.237-29.759-1.528-40.188-28.859
	c-10.429-27.33-5.394-14.565,2.518-36.321c7.912-21.756,33.894-51.335,38.209-92.332c4.315-40.997,28.32-101.143,28.32-101.143
	s6.473-46.391,124.068-75.52c0,0,79.835-10.789,163.986,22.656c84.15,33.444,112.2,92.781,127.305,113.279
	c0,0,18.161,16.542-53.763,19.419l3.596,17.262c0,0,2.877,17.262-5.754,27.331c-8.631,10.07-7.191,21.577-3.596,28.77
	c3.596,7.192,30.927,63.292,27.331,71.923s-3.236,14.026-34.523,12.588c0,0-8.632-3.598,3.955,19.778c0,0,2.876,15.104-1.079,20.139
	s-10.428,6.113-10.428,6.113s5.753,1.079,3.596,10.069c0,0-3.956,5.395-9.71,6.833l-3.956,6.837c0,0,23.377,33.454-7.191,52.155
	c0,0-8.002,4.749-15.824,6.098c-7.821,1.349-12.946,6.743-12.946,6.743l-59.337,23.734c0,0-31.556,15.913-47.199,18.341
	S248.959,494.108,248.959,494.108z"/>
</svg>
